<svg width="124" height="24" viewBox="0 0 124 24" fill="none" xmlns="http://www.w3.org/2000/svg">
<style>
  .icon { fill: #FCF6F4; }
</style>
<g clip-path="url(#clip0)">
<path class="icon" d="M8.06589 7.09821C8.68166 7.09821 9.18084 6.6023 9.18084 5.99057C9.18084 5.37884 8.68166 4.88293 8.06589 4.88293C7.45012 4.88293 6.95094 5.37884 6.95094 5.99057C6.95094 6.6023 7.45012 7.09821 8.06589 7.09821Z"/>
<path class="icon" d="M8.74369 1.72614C8.7782 1.71526 8.81237 1.70208 8.84655 1.69186C8.8377 1.69381 8.82884 1.69579 8.82 1.69779C8.79447 1.707 8.76904 1.71645 8.74369 1.72614ZM8.1872 1.94273C8.19716 1.93778 8.20578 1.93284 8.2164 1.92789C8.26286 1.90646 8.30932 1.88932 8.35577 1.86987C8.31931 1.88279 8.28303 1.8962 8.24693 1.91009C8.22693 1.92081 8.20703 1.93169 8.1872 1.94273ZM6.46168 3.42914C6.44771 3.44716 6.43388 3.4653 6.4202 3.48354C6.41485 3.49319 6.40954 3.50286 6.40427 3.51255C6.42252 3.48453 6.44277 3.45684 6.46168 3.42914ZM6.89339 2.89082C6.85738 2.92536 6.82198 2.96053 6.78721 2.99631C6.75631 3.03588 6.7261 3.076 6.69662 3.11663C6.75967 3.04015 6.82437 2.96466 6.89339 2.89082Z"/>
<path class="icon" fill-rule="evenodd" clip-rule="evenodd" d="M9.73428 0.00865013C9.83214 0.00304655 9.92968 7.87617e-05 10.0269 7.87617e-05C13.0354 -0.0154166 15.598 2.25723 15.8978 5.26369C15.9143 5.43412 15.9237 5.67741 15.9243 5.99289C15.9266 7.45425 15.9266 8.91496 15.9243 10.375C15.9243 10.3873 15.9214 10.3995 15.9159 10.4106C15.9104 10.4216 15.9023 10.4312 15.8923 10.4386L12.5629 12.8873C12.5578 12.8911 12.5516 12.8932 12.5451 12.8933C12.5386 12.8934 12.5325 12.8916 12.5273 12.888L11.2308 12.0032C11.2285 12.0014 11.2265 11.9991 11.2249 11.9965C11.2236 11.9938 11.223 11.9909 11.223 11.9879C11.223 11.9849 11.2236 11.982 11.2249 11.9793L11.2272 11.9758L11.2304 11.9725L14.3644 9.66756C14.3692 9.66391 14.3738 9.65962 14.3776 9.65483L14.3844 9.6436C14.3893 9.63416 14.3919 9.62374 14.3919 9.61317L14.3912 9.13813C14.3912 8.68627 14.3912 8.23435 14.3912 7.78242L13.2217 6.97407C12.9602 7.24635 12.5918 7.41601 12.1831 7.41601C11.3905 7.41601 10.7482 6.77782 10.7482 5.99058C10.7482 5.76612 10.8004 5.55378 10.8934 5.36489L7.06148 2.7164C6.90626 2.87092 6.78444 2.99583 6.69662 3.11664C6.61269 3.2185 6.53492 3.32301 6.46168 3.42915L6.4202 3.48355C6.05337 4.08616 5.78536 4.73723 5.728 5.44632C5.71277 5.59994 5.70499 5.8429 5.70499 6.17552C5.70564 7.31877 5.70564 8.46234 5.70499 9.60625C5.70499 9.61895 5.70791 9.63147 5.71374 9.64281C5.71925 9.65414 5.72768 9.66398 5.73805 9.67152L16.9743 18.0863C17.1327 18.2053 17.2627 18.2818 17.3641 18.3154C17.8107 18.4638 18.2455 18.2277 18.4008 17.7979C18.5168 17.4764 18.4325 17.1751 18.1477 16.8946C18.135 16.8824 18.136 16.8712 18.1503 16.8606L19.3224 15.9541C19.3302 15.9483 19.3395 15.9457 19.3493 15.9467C19.3554 15.9473 19.3613 15.9495 19.3664 15.953C19.369 15.9548 19.3716 15.9569 19.3736 15.9594C19.9125 16.5778 20.1202 17.4019 19.8853 18.1885C19.4063 19.7936 17.5048 20.3922 16.1609 19.3855C12.1721 16.3972 8.1866 13.4118 4.20398 10.4297C4.18875 10.4182 4.17967 10.4004 4.17967 10.3813C4.18324 8.92056 4.18291 7.45788 4.17805 5.99289C4.1774 5.69455 4.18745 5.45159 4.20787 5.26435C4.39679 3.55146 5.17938 2.17844 6.55531 1.1453C7.45456 0.470169 8.59037 0.0706266 9.73428 0.00865013ZM7.4079 2.41177L11.152 4.99941C11.4129 4.73163 11.7784 4.56515 12.1831 4.56515C12.9755 4.56515 13.6181 5.20334 13.6181 5.99058C13.6181 6.21127 13.5675 6.42024 13.4774 6.60672L14.3912 7.23836C14.3912 6.81395 14.3909 6.38955 14.3909 5.9652C14.3906 5.65433 14.3776 5.41171 14.3527 5.23765C14.0957 3.42388 12.6916 1.94439 10.873 1.59825C9.53822 1.37507 8.58583 1.72747 8.10007 1.98658L8.10234 1.98889C7.9374 2.0675 7.66973 2.20972 7.4079 2.41177Z"/>
<path class="icon" d="M19.1856 13.5275C18.7961 15.1494 16.8363 15.8862 15.4824 14.886C14.9707 14.5084 14.4615 14.1341 13.9546 13.7629C13.9515 13.7605 13.9489 13.7575 13.9471 13.754C13.9453 13.7505 13.9443 13.7466 13.9443 13.7427C13.9443 13.7388 13.9452 13.7349 13.9469 13.7313C13.9486 13.7278 13.9512 13.7247 13.9543 13.7223L15.1711 12.7878C15.1759 12.7842 15.1817 12.7822 15.1877 12.7822C15.1937 12.7822 15.1996 12.7842 15.2043 12.7878C15.5107 13.0097 15.8179 13.2354 16.1258 13.4649C16.355 13.6352 16.5246 13.7386 16.6345 13.7751C17.49 14.0589 18.1165 12.9272 17.4166 12.3477C17.4133 12.3449 17.4106 12.3414 17.4088 12.3374C17.407 12.3334 17.4061 12.3291 17.4062 12.3248C17.4064 12.3204 17.4075 12.3161 17.4095 12.3123C17.4116 12.3084 17.4144 12.3051 17.418 12.3025L18.6126 11.4002C18.6223 11.393 18.6314 11.3941 18.6398 11.4035C18.8966 11.6876 19.0804 12.0291 19.1754 12.3991C19.2705 12.769 19.274 13.1559 19.1856 13.5275ZM2.6057 12.344C1.79604 13.0858 2.77859 14.2778 3.6523 13.6383C4.04695 13.3493 4.44339 13.0607 4.84158 12.7726C4.85264 12.7642 4.86392 12.7643 4.87543 12.7729L6.10154 13.6986C6.10477 13.7009 6.10738 13.704 6.10919 13.7075C6.111 13.711 6.11194 13.7149 6.11194 13.7189C6.11194 13.7228 6.111 13.7267 6.10919 13.7302C6.10738 13.7338 6.10477 13.7368 6.10154 13.7391C5.67923 14.0466 5.25891 14.3557 4.84058 14.6665C4.57335 14.8651 4.37005 14.9999 4.23068 15.0706C2.66411 15.8634 0.77433 14.7673 0.774994 12.9905C0.774994 12.4006 0.975753 11.8732 1.37727 11.4081C1.38545 11.3985 1.39464 11.3974 1.40481 11.4048L2.60339 12.3009C2.62153 12.3145 2.6223 12.3291 2.6057 12.344ZM1.81826 16.919C1.53953 17.1662 1.4443 17.633 1.61585 17.9607C1.79338 18.3003 2.22311 18.473 2.5848 18.3573C2.69608 18.3215 2.86476 18.2195 3.09084 18.0514C4.55599 16.9602 6.02378 15.869 7.49424 14.7779C7.4979 14.7751 7.50243 14.7736 7.50715 14.7736C7.51186 14.7736 7.51653 14.7751 7.52045 14.7779L8.78837 15.6894C8.79079 15.6911 8.79277 15.6933 8.79415 15.6959C8.79552 15.6985 8.79626 15.7014 8.79629 15.7043C8.79633 15.7072 8.79566 15.7101 8.79434 15.7127C8.79302 15.7154 8.79109 15.7176 8.78871 15.7194C7.1665 16.925 5.54174 18.1316 3.91445 19.339C3.68924 19.506 3.51094 19.6216 3.37953 19.6858C2.56522 20.0837 1.55645 19.9459 0.877527 19.4066C-0.195283 18.5544 -0.272268 17.0255 0.579873 15.9979C0.583985 15.9931 0.589796 15.99 0.596096 15.9892C0.602396 15.9885 0.60871 15.9902 0.613727 15.994L1.81694 16.8867C1.81945 16.8885 1.82151 16.8909 1.82297 16.8937C1.82443 16.8964 1.82526 16.8994 1.82538 16.9025C1.82551 16.9056 1.82493 16.9087 1.8237 16.9116C1.82247 16.9144 1.82061 16.917 1.81826 16.919ZM10.5716 16.7585L10.5713 19.013C10.5713 19.0162 10.5707 19.0195 10.5694 19.0225C10.5681 19.0255 10.5662 19.0283 10.5639 19.0306C10.5615 19.0329 10.5588 19.0347 10.5557 19.0359C10.5527 19.0371 10.5494 19.0377 10.5461 19.0377H9.68664C9.68004 19.0377 9.67372 19.0351 9.66905 19.0305C9.66438 19.0258 9.66176 19.0195 9.66176 19.013L9.66208 16.5349C9.66208 16.5311 9.66299 16.5273 9.66472 16.5239C9.66644 16.5205 9.66896 16.5175 9.67205 16.5152L9.95211 16.3068C9.95645 16.3035 9.96175 16.3018 9.96721 16.3018C9.97267 16.3018 9.97797 16.3035 9.98231 16.3068L10.5614 16.7387C10.5644 16.741 10.5669 16.744 10.5687 16.7474C10.5704 16.7508 10.5716 16.7546 10.5716 16.7585ZM8.61616 17.3235L8.61649 20.9039L8.6157 20.9084L8.6132 20.9123L8.6094 20.9148L8.60488 20.9157H7.71823L7.7136 20.9149L7.70967 20.9124L7.70709 20.9085L7.70628 20.9039L7.70661 17.9805L7.70783 17.9749L7.71158 17.9706L8.59758 17.3139C8.59932 17.3126 8.6014 17.3118 8.60358 17.3117C8.60576 17.3115 8.60795 17.3119 8.60989 17.3129C8.61183 17.3139 8.61345 17.3154 8.61456 17.3173C8.61567 17.3192 8.61622 17.3213 8.61616 17.3235ZM12.5364 18.2234V20.9039L12.5356 20.9083L12.5331 20.9121L12.5293 20.9146L12.5248 20.9154L11.6388 20.9141L11.6344 20.9132L11.6307 20.9107L11.6283 20.9069L11.6275 20.9026V17.5612C11.6274 17.559 11.628 17.5569 11.6291 17.5551C11.6302 17.5532 11.6318 17.5517 11.6337 17.5508C11.6356 17.5498 11.6378 17.5494 11.6399 17.5496C11.642 17.5498 11.6441 17.5506 11.6458 17.5519L12.5318 18.2145L12.5349 18.2184L12.5364 18.2234ZM6.65138 18.7872V22.3999C6.65138 22.4031 6.65009 22.4062 6.64779 22.4085C6.64548 22.4108 6.64236 22.4121 6.63911 22.4121H5.75445C5.75125 22.412 5.74821 22.4106 5.74598 22.4084C5.74374 22.4061 5.7425 22.403 5.7425 22.3999L5.74217 19.4306L5.74362 19.4251L5.74747 19.4208L6.63248 18.7773C6.6343 18.7761 6.63641 18.7754 6.63858 18.7753C6.64075 18.7752 6.64291 18.7757 6.64483 18.7767C6.64675 18.7777 6.64838 18.7792 6.64953 18.7811C6.65068 18.7829 6.65132 18.785 6.65138 18.7872ZM14.3197 19.4804C14.3545 19.4979 14.4318 19.5233 14.474 19.5536C14.4861 19.5626 14.4922 19.5747 14.4922 19.5899V22.3834C14.4923 22.3872 14.4916 22.3909 14.4901 22.3945C14.4887 22.398 14.4866 22.4012 14.484 22.4039C14.4813 22.4066 14.4782 22.4087 14.4747 22.4102C14.4712 22.4116 14.4675 22.4124 14.4637 22.4124L13.6105 22.4121C13.592 22.4118 13.5827 22.4026 13.5827 22.3844V19.0351C13.5826 19.0315 13.5836 19.0281 13.5855 19.0251C13.5874 19.0222 13.5902 19.0198 13.5935 19.0184C13.5968 19.0169 13.6004 19.0165 13.604 19.017C13.6075 19.0176 13.6108 19.0192 13.6135 19.0215C13.8325 19.2018 14.0679 19.3545 14.3197 19.4804Z"/>
<path class="icon" d="M10.5506 19.824L9.68647 19.821C9.67456 19.821 9.66487 19.8306 9.66482 19.8424L9.66212 20.6108C9.66208 20.6227 9.67172 20.6323 9.68363 20.6323L10.5477 20.6353C10.5596 20.6354 10.5693 20.6258 10.5693 20.614L10.572 19.8455C10.5721 19.8337 10.5625 19.8241 10.5506 19.824Z"/>
<path class="icon" d="M8.59726 21.6911H7.72522C7.71532 21.6911 7.70729 21.6991 7.70729 21.7089V22.4862C7.70729 22.4961 7.71532 22.504 7.72522 22.504H8.59726C8.60716 22.504 8.61518 22.4961 8.61518 22.4862V21.7089C8.61518 21.6991 8.60716 21.6911 8.59726 21.6911Z"/>
<path class="icon" d="M12.516 21.6921H11.6492C11.6379 21.6921 11.6287 21.7012 11.6287 21.7125V22.4829C11.6287 22.4942 11.6379 22.5034 11.6492 22.5034H12.516C12.5273 22.5034 12.5366 22.4942 12.5366 22.4829V21.7125C12.5366 21.7012 12.5273 21.6921 12.516 21.6921Z"/>
<path class="icon" d="M6.62687 23.1884H5.76741C5.75404 23.1884 5.74319 23.1992 5.74319 23.2125V23.9756C5.74319 23.9889 5.75404 23.9997 5.76741 23.9997H6.62687C6.64024 23.9997 6.65109 23.9889 6.65109 23.9756V23.2125C6.65109 23.1992 6.64024 23.1884 6.62687 23.1884Z"/>
<path class="icon" d="M14.467 23.1871H13.6082C13.5947 23.1871 13.5837 23.198 13.5837 23.2115V23.9756C13.5837 23.9891 13.5947 24 13.6082 24H14.467C14.4806 24 14.4916 23.9891 14.4916 23.9756V23.2115C14.4916 23.198 14.4806 23.1871 14.467 23.1871Z"/>
<path class="icon" d="M32.2521 18.234C29.6792 18.234 27.7586 16.056 27.7586 13.14C27.7586 10.224 29.6249 8.046 32.2521 8.046C33.7016 8.046 34.9518 8.604 35.5859 9.774H35.604C35.5859 9.144 35.5859 8.892 35.5859 8.136V4.968H37.4522V18H35.5859C35.5859 17.406 35.5859 17.064 35.604 16.488H35.5859C34.9155 17.586 33.6835 18.234 32.2521 18.234ZM32.6144 16.56C34.4626 16.56 35.6584 15.156 35.6584 13.158C35.6584 11.124 34.4444 9.756 32.6144 9.756C30.8207 9.756 29.6249 11.232 29.6249 13.158C29.6249 15.084 30.8207 16.56 32.6144 16.56Z"/>
<path class="icon" d="M39.6585 18V8.27999H41.5248C41.5248 8.90999 41.5248 9.28799 41.5067 9.89999H41.5248C42.0865 8.81999 43.0468 8.26199 44.2064 8.26199C44.3694 8.26199 44.5506 8.26199 44.7318 8.27999V9.97199H44.0614C42.3945 9.97199 41.5248 11.232 41.5248 12.762V18H39.6585Z"/>
<path class="icon" d="M50.9884 18.27C48.0713 18.27 46.1145 16.11 46.1145 13.158C46.1145 10.188 48.0894 7.992 51.0066 7.992C53.9599 7.992 55.6087 9.918 55.6087 12.87C55.6087 13.14 55.5906 13.374 55.5544 13.644H47.9264C48.1257 15.372 49.3034 16.614 51.0609 16.614C52.293 16.614 53.2533 16.02 53.815 14.904L55.3732 15.678C54.5035 17.424 52.9271 18.27 50.9884 18.27ZM47.9988 12.168H53.8693C53.6519 10.638 52.6735 9.648 51.0066 9.648C49.4302 9.648 48.3431 10.692 47.9988 12.168Z"/>
<path class="icon" d="M61.7411 18.252C59.1139 18.252 57.2476 16.11 57.2476 13.176C57.2476 10.26 59.1682 8.064 61.7411 8.064C63.2449 8.064 64.4045 8.676 65.0568 9.864H65.0931C65.0749 9.306 65.0749 8.94599 65.0749 8.27999H66.9412V18H65.0749C65.0749 17.334 65.0749 17.082 65.0931 16.452H65.0568C64.3683 17.568 63.1181 18.252 61.7411 18.252ZM62.1035 16.56C63.9516 16.56 65.1474 15.192 65.1474 13.158C65.1474 11.16 63.9335 9.75599 62.1035 9.75599C60.3097 9.75599 59.1139 11.25 59.1139 13.176C59.1139 15.102 60.3097 16.56 62.1035 16.56Z"/>
<path class="icon" d="M73.3873 18.234C70.8145 18.234 68.8939 16.056 68.8939 13.14C68.8939 10.224 70.7601 8.046 73.3873 8.046C74.8368 8.046 76.087 8.604 76.7212 9.774H76.7393C76.7212 9.144 76.7212 8.892 76.7212 8.136V4.968H78.5874V18H76.7212C76.7212 17.406 76.7212 17.064 76.7393 16.488H76.7212C76.0508 17.586 74.8187 18.234 73.3873 18.234ZM73.7497 16.56C75.5978 16.56 76.7937 15.156 76.7937 13.158C76.7937 11.124 75.5797 9.756 73.7497 9.756C71.956 9.756 70.7601 11.232 70.7601 13.158C70.7601 15.084 71.956 16.56 73.7497 16.56Z"/>
<path class="icon" d="M80.7938 18V8.28001H82.66C82.66 8.91001 82.66 9.25201 82.6419 9.84601H82.6782C83.258 8.74801 84.3632 8.04601 85.7402 8.04601C88.1138 8.04601 89.3278 9.72001 89.3278 11.844V18H87.4615V12.33C87.4615 10.818 86.6643 9.73801 85.1061 9.73801C83.5116 9.73801 82.66 10.98 82.66 12.42V18H80.7938Z"/>
<path class="icon" d="M96.2132 18.27C93.2779 18.27 91.2486 16.056 91.2486 13.122C91.2486 10.188 93.2779 8.00999 96.2132 8.00999C99.1303 8.00999 101.16 10.188 101.16 13.122C101.16 16.038 99.1303 18.27 96.2132 18.27ZM96.2132 16.578C98.0613 16.578 99.2571 15.012 99.2571 13.122C99.2571 11.214 98.0794 9.68399 96.2132 9.68399C94.3288 9.68399 93.133 11.214 93.133 13.122C93.133 15.012 94.3288 16.578 96.2132 16.578Z"/>
<path class="icon" d="M107.353 18.234C104.78 18.234 102.86 16.056 102.86 13.14C102.86 10.224 104.726 8.046 107.353 8.046C108.802 8.046 110.053 8.604 110.687 9.774H110.705C110.687 9.144 110.687 8.892 110.687 8.136V4.968H112.553V18H110.687C110.687 17.406 110.687 17.064 110.705 16.488H110.687C110.016 17.586 108.784 18.234 107.353 18.234ZM107.715 16.56C109.563 16.56 110.759 15.156 110.759 13.158C110.759 11.124 109.545 9.756 107.715 9.756C105.922 9.756 104.726 11.232 104.726 13.158C104.726 15.084 105.922 16.56 107.715 16.56Z"/>
<path class="icon" d="M119.38 18.27C116.463 18.27 114.506 16.11 114.506 13.158C114.506 10.188 116.481 7.992 119.398 7.992C122.351 7.992 124 9.918 124 12.87C124 13.14 123.982 13.374 123.946 13.644H116.318C116.517 15.372 117.695 16.614 119.452 16.614C120.684 16.614 121.645 16.02 122.206 14.904L123.764 15.678C122.895 17.424 121.318 18.27 119.38 18.27ZM116.39 12.168H122.261C122.043 10.638 121.065 9.648 119.398 9.648C117.822 9.648 116.734 10.692 116.39 12.168Z"/>
</g>
<defs>
<clipPath id="clip0">
<rect width="124" height="24" fill="white"/>
</clipPath>
</defs>
</svg>
